0
SECTION
2
HEADER
9
$INSUNITS
70
4
9
$ACADVER
1
AC1014
9
$HANDSEED
5
FFFF
0
ENDSEC
0
SECTION
2
TABLES
0
TABLE
2
VPORT
5
8
100
AcDbSymbolTable
0
ENDTAB
0
TABLE
2
LTYPE
5
5
100
AcDbSymbolTable
0
LTYPE
5
14
100
AcDbSymbolTableRecord
100
AcDbLinetypeTableRecord
2
BYBLOCK
70
0
0
LTYPE
5
15
100
AcDbSymbolTableRecord
100
AcDbLinetypeTableRecord
2
BYLAYER
70
0
0
ENDTAB
0
TABLE
2
LAYER
5
2
100
AcDbSymbolTable
70
2
0
LAYER
5
50
100
AcDbSymbolTableRecord
100
AcDbLayerTableRecord
2
0
70
0
6
CONTINUOUS
0
ENDTAB
0
TABLE
2
STYLE
5
3
100
AcDbSymbolTable
70
1
0
STYLE
5
11
100
AcDbSymbolTableRecord
100
AcDbTextStyleTableRecord
2
STANDARD
70
0
0
ENDTAB
0
TABLE
2
VIEW
5
6
100
AcDbSymbolTable
70
0
0
ENDTAB
0
TABLE
2
UCS
5
7
100
AcDbSymbolTable
70
0
0
ENDTAB
0
TABLE
2
APPID
5
9
100
AcDbSymbolTable
70
2
0
APPID
5
12
100
AcDbSymbolTableRecord
100
AcDbRegAppTableRecord
2
ACAD
70
0
0
ENDTAB
0
TABLE
2
DIMSTYLE
5
A
100
AcDbSymbolTable
70
1
0
ENDTAB
0
TABLE
2
BLOCK_RECORD
5
1
100
AcDbSymbolTable
70
1
0
BLOCK_RECORD
5
1F
100
AcDbSymbolTableRecord
100
AcDbBlockTableRecord
2
*MODEL_SPACE
0
BLOCK_RECORD
5
1B
100
AcDbSymbolTableRecord
100
AcDbBlockTableRecord
2
*PAPER_SPACE
0
ENDTAB
0
ENDSEC
0
SECTION
2
BLOCKS
0
BLOCK
5
20
100
AcDbEntity
100
AcDbBlockBegin
2
*MODEL_SPACE
0
ENDBLK
5
21
100
AcDbEntity
100
AcDbBlockEnd
0
BLOCK
5
1C
100
AcDbEntity
100
AcDbBlockBegin
2
*PAPER_SPACE
0
ENDBLK
5
1D
100
AcDbEntity
100
AcDbBlockEnd
0
ENDSEC
0
SECTION
2
ENTITIES
0
CIRCLE
5
100
100
AcDbEntity
8
0
100
AcDbCircle
10
449.9771767539147
20
244.93669855055745
30
0
40
2.4130000000000003
210
0
220
0
230
1
0
LWPOLYLINE
5
101
100
AcDbEntity
8
0
100
AcDbPolyline
90
24
70
1
43
0.0
10
312.95860313178946
20
156.70151381884006
42
-0.32197255939284392
10
311.90845249492077
20
156.71425600422191
42
1.9792103867990396
10
311.90845249492088
20
138.4889850968928
42
-0.32197255939275993
10
312.95860313178963
20
138.5017272822746
10
313.01027549120488
20
138.4655471245994
42
-0.32197255939278252
10
313.35750577712884
20
137.47438121924267
42
0.14399201158785402
10
313.35750577712884
20
131.08685988187193
42
-0.32197255939273028
10
313.01027549120494
20
130.09569397651526
10
312.95860313178963
20
130.05951381884
42
-0.32197255939279479
10
311.90845249492088
20
130.07225600422186
42
6.1028076601759782
10
316.05275373070043
20
124.1533812192427
42
-0.32197255939275682
10
316.39998401662427
20
125.14454712459937
10
316.45165637603964
20
125.18072728227467
42
-0.32197255939272901
10
317.50180701290839
20
125.16798509689274
42
0.71842120810709209
10
335.07775373070041
20
137.47438121924267
42
-0.32197255939279334
10
335.42498401662419
20
138.46554712459937
10
335.47665637603961
20
138.50172728227463
42
-0.32197255939266273
10
336.52680701290831
20
138.4889850968928
42
1.9792103867990385
10
336.52680701290842
20
156.71425600422188
42
-0.32197255939281721
10
335.47665637603961
20
156.70151381884006
10
335.42498401662436
20
156.73769397651526
42
-0.32197255939270364
10
335.07775373070046
20
157.72885988187195
42
1.3364267939950918
10
313.35750577712878
20
157.72885988187201
42
-0.32197255939279495
10
313.01027549120488
20
156.73769397651535
0
LWPOLYLINE
5
102
100
AcDbEntity
8
0
100
AcDbPolyline
90
16
70
1
43
0.0
10
331.98360313178961
20
151.82272728227457
42
0.32197255939274583
10
330.93345249492074
20
151.80998509689266
42
-0.32868118046914852
10
317.50180701290839
20
151.80998509689269
42
0.32197255939276059
10
316.45165637603964
20
151.82272728227454
10
316.39998401662427
20
151.78654712459934
42
0.32197255939269737
10
316.05275373070037
20
150.79538121924264
42
-0.14399201158785402
10
316.05275373070037
20
144.4078598818719
42
0.32197255939271308
10
316.39998401662427
20
143.41669397651526
10
316.45165637603969
20
143.38051381883997
42
0.32197255939276698
10
317.50180701290839
20
143.39325600422174
42
-0.32868118046914618
10
330.9334524949208
20
143.39325600422188
42
0.32197255939265362
10
331.98360313178961
20
143.38051381884
10
332.03527549120503
20
143.41669397651529
42
0.32197255939279334
10
332.38250577712881
20
144.40785988187196
42
-0.14399201158785618
10
332.38250577712893
20
150.79538121924273
42
0.32197255939281227
10
332.03527549120503
20
151.78654712459928
0
LWPOLYLINE
5
103
100
AcDbEntity
8
0
100
AcDbPolyline
90
8
70
1
43
0.0
10
187.42575313178975
20
124.67304228227462
42
0.32197255939274538
10
186.37560249492105
20
124.66030009689268
42
-6.1028076601759276
10
190.51990373070061
20
130.57917488187195
42
0.32197255939273023
10
190.86713401662448
20
129.5880089765152
10
190.91880637603992
20
129.55182881883994
42
0.32197255939274078
10
191.9689570129087
20
129.56457100422176
42
-6.1028076601759365
10
187.82465577712898
20
123.64569621924267
42
0.32197255939270669
10
187.47742549120517
20
124.63686212459932
0
LWPOLYLINE
5
104
100
AcDbEntity
8
0
100
AcDbPolyline
90
8
70
1
43
0.0
10
452.56517675391478
20
67.136698550556972
42
0.41421356237309076
10
455.56517675391484
20
70.136698550556957
10
455.56517675391461
20
267.33669855055729
42
0.41421356237310542
10
452.56517675391478
20
270.33669855055712
10
52.165176753915006
20
270.3366985505574
42
0.41421356237310375
10
49.165176753914864
20
267.33669855055729
10
49.165176753915141
20
70.136698550557213
42
0.41421356237309243
10
52.165176753915219
20
67.136698550557142
0
CIRCLE
5
105
100
AcDbEntity
8
0
100
AcDbCircle
10
252.36517675391482
20
264.74869855055726
30
0
40
2.4130000000000025
210
0
220
0
230
1
0
CIRCLE
5
106
100
AcDbEntity
8
0
100
AcDbCircle
10
54.753176753914907
20
244.93669855055717
30
0
40
2.4129999999999976
210
0
220
0
230
1
0
CIRCLE
5
107
100
AcDbEntity
8
0
100
AcDbCircle
10
54.753176753914943
20
92.536698550557219
30
0
40
2.4130000000000003
210
0
220
0
230
1
0
CIRCLE
5
108
100
AcDbEntity
8
0
100
AcDbCircle
10
93.193657753915048
20
193.22584755055718
30
0
40
11.320000000000007
210
0
220
0
230
1
0
CIRCLE
5
109
100
AcDbEntity
8
0
100
AcDbCircle
10
146.68338975391487
20
212.6961705505571
30
0
40
11.32
210
0
220
0
230
1
0
LWPOLYLINE
5
110
100
AcDbEntity
8
0
100
AcDbPolyline
90
4
70
1
43
0.0
10
380.62119827282601
20
219.86232020685836
42
0.6044883002055037
10
380.62119827282601
20
221.45610089425602
42
-4.0567404226967376
10
391.14349323500306
20
221.45610089425617
42
0.60448830020546862
10
391.14349323500289
20
219.86232020685839
42
-4.0567404226968504
0
LWPOLYLINE
5
111
100
AcDbEntity
8
0
100
AcDbPolyline
90
4
70
1
43
0.0
10
336.51457723500181
20
212.69603489425623
42
4.0567404226976409
10
325.99228227282754
20
212.69603489425623
42
-0.60448830020609556
10
325.99228227282765
20
211.10225420685924
42
4.0567404226982227
10
336.51457723500135
20
211.10225420685913
42
-0.60448830020612554
0
LWPOLYLINE
5
112
100
AcDbEntity
8
0
100
AcDbPolyline
90
4
70
1
43
0.0
10
352.27248127282644
20
223.08971320685831
42
4.0567404226969508
10
362.79477623500281
20
223.08971320685831
42
-0.60448830020570588
10
362.79477623500264
20
224.68349389425586
42
4.0567404226971062
10
352.27248127282655
20
224.68349389425589
42
-0.60448830020562805
0
LWPOLYLINE
5
113
100
AcDbEntity
8
0
100
AcDbPolyline
90
4
70
1
43
0.0
10
406.84531227282662
20
203.95588420685812
42
0.60448830020587174
10
406.8453122728269
20
205.54966489425564
42
-4.0567404226975246
10
417.36760723500208
20
205.54966489425561
42
0.60448830020596211
10
417.36760723500225
20
203.95588420685809
42
-4.0567404226972572
0
CIRCLE
5
114
100
AcDbEntity
8
0
100
AcDbCircle
10
118.06012175391494
20
209.50533055055703
30
0
40
11.319999999999995
210
0
220
0
230
1
0
CIRCLE
5
115
100
AcDbEntity
8
0
100
AcDbCircle
10
449.9771767539147
20
92.536698550557176
30
0
40
2.4130000000000305
210
0
220
0
230
1
0
CIRCLE
5
116
100
AcDbEntity
8
0
100
AcDbCircle
10
252.36517675391482
20
72.724698550557179
30
0
40
2.4129999999999949
210
0
220
0
230
1
0
CIRCLE
5
117
100
AcDbEntity
8
0
100
AcDbCircle
10
172.86517675391482
20
200.92669855055718
30
0
40
11.319999999999995
210
0
220
0
230
1
0
CIRCLE
5
118
100
AcDbEntity
8
0
100
AcDbCircle
10
252.36517675391474
20
195.68794855055717
30
0
40
11.32
210
0
220
0
230
1
0
ENDSEC
0
SECTION
2
OBJECTS
0
DICTIONARY
5
C
100
AcDbDictionary
3
ACAD_GROUP
350
D
3
ACAD_MLINESTYLE
350
17
0
DICTIONARY
5
D
100
AcDbDictionary
0
DICTIONARY
5
1A
330
C
100
AcDbDictionary
0
DICTIONARY
5
17
100
AcDbDictionary
0
ENDSEC
0
EOF
