0
SECTION
2
HEADER
9
$INSUNITS
70
4
9
$ACADVER
1
AC1014
9
$HANDSEED
5
FFFF
0
ENDSEC
0
SECTION
2
TABLES
0
TABLE
2
VPORT
5
8
100
AcDbSymbolTable
0
ENDTAB
0
TABLE
2
LTYPE
5
5
100
AcDbSymbolTable
0
LTYPE
5
14
100
AcDbSymbolTableRecord
100
AcDbLinetypeTableRecord
2
BYBLOCK
70
0
0
LTYPE
5
15
100
AcDbSymbolTableRecord
100
AcDbLinetypeTableRecord
2
BYLAYER
70
0
0
ENDTAB
0
TABLE
2
LAYER
5
2
100
AcDbSymbolTable
70
2
0
LAYER
5
50
100
AcDbSymbolTableRecord
100
AcDbLayerTableRecord
2
0
70
0
6
CONTINUOUS
0
ENDTAB
0
TABLE
2
STYLE
5
3
100
AcDbSymbolTable
70
1
0
STYLE
5
11
100
AcDbSymbolTableRecord
100
AcDbTextStyleTableRecord
2
STANDARD
70
0
0
ENDTAB
0
TABLE
2
VIEW
5
6
100
AcDbSymbolTable
70
0
0
ENDTAB
0
TABLE
2
UCS
5
7
100
AcDbSymbolTable
70
0
0
ENDTAB
0
TABLE
2
APPID
5
9
100
AcDbSymbolTable
70
2
0
APPID
5
12
100
AcDbSymbolTableRecord
100
AcDbRegAppTableRecord
2
ACAD
70
0
0
ENDTAB
0
TABLE
2
DIMSTYLE
5
A
100
AcDbSymbolTable
70
1
0
ENDTAB
0
TABLE
2
BLOCK_RECORD
5
1
100
AcDbSymbolTable
70
1
0
BLOCK_RECORD
5
1F
100
AcDbSymbolTableRecord
100
AcDbBlockTableRecord
2
*MODEL_SPACE
0
BLOCK_RECORD
5
1B
100
AcDbSymbolTableRecord
100
AcDbBlockTableRecord
2
*PAPER_SPACE
0
ENDTAB
0
ENDSEC
0
SECTION
2
BLOCKS
0
BLOCK
5
20
100
AcDbEntity
100
AcDbBlockBegin
2
*MODEL_SPACE
0
ENDBLK
5
21
100
AcDbEntity
100
AcDbBlockEnd
0
BLOCK
5
1C
100
AcDbEntity
100
AcDbBlockBegin
2
*PAPER_SPACE
0
ENDBLK
5
1D
100
AcDbEntity
100
AcDbBlockEnd
0
ENDSEC
0
SECTION
2
ENTITIES
0
LWPOLYLINE
5
100
100
AcDbEntity
8
0
100
AcDbPolyline
90
8
70
1
43
0.0
10
453.22609738451058
20
266.89424810323294
10
52.826097384510788
20
266.89424810323305
42
0.41421356237309503
10
49.826097384510817
20
263.89424810323305
10
49.826097384510994
20
66.694248103232951
42
0.41421356237309503
10
52.826097384511002
20
63.694248103232944
10
453.22609738451058
20
63.694248103232802
42
0.41421356237309503
10
456.22609738451069
20
66.694248103232923
10
456.22609738451052
20
263.894248103233
42
0.41421356237309503
0
LWPOLYLINE
5
101
100
AcDbEntity
8
0
100
AcDbPolyline
90
4
70
1
43
0.0
10
206.34570038451088
20
110.009485103233
10
206.34570038451088
20
124.009485103233
10
192.34570038451082
20
124.009485103233
10
192.34570038451082
20
110.009485103233
0
LWPOLYLINE
5
102
100
AcDbEntity
8
0
100
AcDbPolyline
90
4
70
1
43
0.0
10
238.38609738451083
20
185.24549810323296
10
238.38609738451083
20
199.24549810323296
10
224.38609738451083
20
199.24549810323296
10
224.38609738451083
20
185.24549810323296
0
CIRCLE
5
103
100
AcDbEntity
8
0
100
AcDbCircle
10
253.02609738451082
20
261.30624810323297
30
0
40
2.4130000000000025
210
0
220
0
230
1
0
LWPOLYLINE
5
104
100
AcDbEntity
8
0
100
AcDbPolyline
90
4
70
1
43
0.0
10
324.91435038451073
20
204.6366941032328
10
324.91435038451073
20
190.63669410323288
10
338.91435038451073
20
190.63669410323288
10
338.91435038451073
20
204.6366941032328
0
LWPOLYLINE
5
105
100
AcDbEntity
8
0
100
AcDbPolyline
90
4
70
1
43
0.0
10
351.19454938451065
20
202.62415310323289
10
365.19454938451076
20
202.62415310323294
10
365.19454938451076
20
216.62415310323286
10
351.19454938451065
20
216.6241531032328
0
LWPOLYLINE
5
106
100
AcDbEntity
8
0
100
AcDbPolyline
90
4
70
1
43
0.0
10
405.76738038451072
20
205.13032410323288
10
419.76738038451072
20
205.13032410323279
10
419.76738038451072
20
219.13032410323279
10
405.76738038451072
20
219.13032410323285
0
LWPOLYLINE
5
107
100
AcDbEntity
8
0
100
AcDbPolyline
90
4
70
1
43
0.0
10
393.54326638451062
20
235.03676010323292
10
379.54326638451062
20
235.03676010323292
10
379.54326638451062
20
221.03676010323287
10
393.54326638451062
20
221.03676010323287
0
LWPOLYLINE
5
108
100
AcDbEntity
8
0
100
AcDbPolyline
90
4
70
1
43
0.0
10
351.19454938451071
20
238.26415310323281
10
351.19454938451065
20
224.26415310323281
10
365.19454938451076
20
224.2641531032329
10
365.19454938451076
20
238.26415310323287
0
CIRCLE
5
109
100
AcDbEntity
8
0
100
AcDbCircle
10
450.6380973845105
20
241.49424810323302
30
0
40
2.4130000000000003
210
0
220
0
230
1
0
LWPOLYLINE
5
110
100
AcDbEntity
8
0
100
AcDbPolyline
90
4
70
1
43
0.0
10
405.76738038451072
20
197.49032410323298
10
405.7673803845106
20
183.49032410323301
10
419.76738038451072
20
183.49032410323292
10
419.76738038451072
20
197.49032410323292
0
LWPOLYLINE
5
111
100
AcDbEntity
8
0
100
AcDbPolyline
90
4
70
1
43
0.0
10
338.91435038451073
20
226.27669410323281
10
324.91435038451073
20
226.27669410323281
10
324.91435038451073
20
212.27669410323284
10
338.91435038451073
20
212.27669410323284
0
LWPOLYLINE
5
112
100
AcDbEntity
8
0
100
AcDbPolyline
90
4
70
1
43
0.0
10
336.90355038451088
20
151.1591701032329
10
336.90355038451088
20
137.15917010323284
10
350.90355038451088
20
137.15917010323278
10
350.90355038451088
20
151.1591701032329
0
LWPOLYLINE
5
113
100
AcDbEntity
8
0
100
AcDbPolyline
90
4
70
1
43
0.0
10
317.87855038451079
20
123.83817010323287
10
331.87855038451067
20
123.83817010323287
10
331.87855038451067
20
137.83817010323293
10
317.87855038451079
20
137.83817010323293
0
LWPOLYLINE
5
114
100
AcDbEntity
8
0
100
AcDbPolyline
90
4
70
1
43
0.0
10
379.54326638451062
20
199.39676010323294
10
393.54326638451062
20
199.39676010323294
10
393.54326638451062
20
213.39676010323291
10
379.54326638451062
20
213.39676010323291
0
LWPOLYLINE
5
115
100
AcDbEntity
8
0
100
AcDbPolyline
90
4
70
1
43
0.0
10
331.87855038451067
20
150.48017010323289
10
331.87855038451067
20
164.48017010323287
10
317.87855038451079
20
164.48017010323287
10
317.87855038451079
20
150.48017010323289
0
CIRCLE
5
116
100
AcDbEntity
8
0
100
AcDbCircle
10
450.6380973845105
20
89.094248103232985
30
0
40
2.4130000000000305
210
0
220
0
230
1
0
LWPOLYLINE
5
117
100
AcDbEntity
8
0
100
AcDbPolyline
90
4
70
1
43
0.0
10
140.34431038451083
20
216.25372010323292
10
140.34431038451083
20
202.25372010323301
10
154.34431038451089
20
202.25372010323301
10
154.34431038451089
20
216.25372010323292
0
LWPOLYLINE
5
118
100
AcDbEntity
8
0
100
AcDbPolyline
90
4
70
1
43
0.0
10
166.52609738451082
20
190.48424810323294
10
180.52609738451082
20
190.48424810323294
10
180.52609738451082
20
204.48424810323291
10
166.52609738451082
20
204.48424810323291
0
LWPOLYLINE
5
119
100
AcDbEntity
8
0
100
AcDbPolyline
90
4
70
1
43
0.0
10
246.02609738451079
20
199.24549810323296
10
246.02609738451079
20
185.24549810323296
10
260.02609738451088
20
185.24549810323296
10
260.02609738451088
20
199.24549810323296
0
LWPOLYLINE
5
120
100
AcDbEntity
8
0
100
AcDbPolyline
90
4
70
1
43
0.0
10
267.66609738451075
20
199.24549810323296
10
267.66609738451075
20
185.24549810323296
10
281.66609738451081
20
185.24549810323296
10
281.66609738451081
20
199.24549810323296
0
LWPOLYLINE
5
121
100
AcDbEntity
8
0
100
AcDbPolyline
90
4
70
1
43
0.0
10
125.72104238451097
20
213.06288010323297
10
111.72104238451105
20
213.06288010323297
10
111.72104238451105
20
199.06288010323306
10
125.72104238451097
20
199.06288010323306
0
LWPOLYLINE
5
122
100
AcDbEntity
8
0
100
AcDbPolyline
90
4
70
1
43
0.0
10
298.85355038451075
20
124.5171701032329
10
298.85355038451075
20
110.51717010323304
10
312.85355038451064
20
110.51717010323304
10
312.85355038451064
20
124.5171701032329
0
LWPOLYLINE
5
123
100
AcDbEntity
8
0
100
AcDbPolyline
90
4
70
1
43
0.0
10
86.85457838451093
20
196.78339710323303
10
86.85457838451093
20
182.78339710323306
10
100.85457838451099
20
182.78339710323306
10
100.85457838451099
20
196.78339710323303
0
CIRCLE
5
124
100
AcDbEntity
8
0
100
AcDbCircle
10
55.414097384510725
20
241.49424810323296
30
0
40
2.4129999999999976
210
0
220
0
230
1
0
LWPOLYLINE
5
125
100
AcDbEntity
8
0
100
AcDbPolyline
90
4
70
1
43
0.0
10
187.32070038451084
20
137.33048510323297
10
173.32070038451079
20
137.33048510323297
10
173.32070038451079
20
123.33048510323292
10
187.32070038451084
20
123.33048510323292
0
CIRCLE
5
126
100
AcDbEntity
8
0
100
AcDbCircle
10
55.414097384510796
20
89.094248103232943
30
0
40
2.4130000000000003
210
0
220
0
230
1
0
LWPOLYLINE
5
127
100
AcDbEntity
8
0
100
AcDbPolyline
90
4
70
1
43
0.0
10
298.85355038451075
20
137.15917010323292
10
312.85355038451064
20
137.15917010323292
10
312.85355038451064
20
151.15917010323298
10
298.85355038451075
20
151.15917010323298
0
CIRCLE
5
128
100
AcDbEntity
8
0
100
AcDbCircle
10
253.02609738451082
20
69.282248103232959
30
0
40
2.4129999999999949
210
0
220
0
230
1
0
ENDSEC
0
SECTION
2
OBJECTS
0
DICTIONARY
5
C
100
AcDbDictionary
3
ACAD_GROUP
350
D
3
ACAD_MLINESTYLE
350
17
0
DICTIONARY
5
D
100
AcDbDictionary
0
DICTIONARY
5
1A
330
C
100
AcDbDictionary
0
DICTIONARY
5
17
100
AcDbDictionary
0
ENDSEC
0
EOF
