0
SECTION
2
HEADER
9
$INSUNITS
70
4
9
$ACADVER
1
AC1014
9
$HANDSEED
5
FFFF
0
ENDSEC
0
SECTION
2
TABLES
0
TABLE
2
VPORT
5
8
100
AcDbSymbolTable
0
ENDTAB
0
TABLE
2
LTYPE
5
5
100
AcDbSymbolTable
0
LTYPE
5
14
100
AcDbSymbolTableRecord
100
AcDbLinetypeTableRecord
2
BYBLOCK
70
0
0
LTYPE
5
15
100
AcDbSymbolTableRecord
100
AcDbLinetypeTableRecord
2
BYLAYER
70
0
0
ENDTAB
0
TABLE
2
LAYER
5
2
100
AcDbSymbolTable
70
2
0
LAYER
5
50
100
AcDbSymbolTableRecord
100
AcDbLayerTableRecord
2
0
70
0
6
CONTINUOUS
0
ENDTAB
0
TABLE
2
STYLE
5
3
100
AcDbSymbolTable
70
1
0
STYLE
5
11
100
AcDbSymbolTableRecord
100
AcDbTextStyleTableRecord
2
STANDARD
70
0
0
ENDTAB
0
TABLE
2
VIEW
5
6
100
AcDbSymbolTable
70
0
0
ENDTAB
0
TABLE
2
UCS
5
7
100
AcDbSymbolTable
70
0
0
ENDTAB
0
TABLE
2
APPID
5
9
100
AcDbSymbolTable
70
2
0
APPID
5
12
100
AcDbSymbolTableRecord
100
AcDbRegAppTableRecord
2
ACAD
70
0
0
ENDTAB
0
TABLE
2
DIMSTYLE
5
A
100
AcDbSymbolTable
70
1
0
ENDTAB
0
TABLE
2
BLOCK_RECORD
5
1
100
AcDbSymbolTable
70
1
0
BLOCK_RECORD
5
1F
100
AcDbSymbolTableRecord
100
AcDbBlockTableRecord
2
*MODEL_SPACE
0
BLOCK_RECORD
5
1B
100
AcDbSymbolTableRecord
100
AcDbBlockTableRecord
2
*PAPER_SPACE
0
ENDTAB
0
ENDSEC
0
SECTION
2
BLOCKS
0
BLOCK
5
20
100
AcDbEntity
100
AcDbBlockBegin
2
*MODEL_SPACE
0
ENDBLK
5
21
100
AcDbEntity
100
AcDbBlockEnd
0
BLOCK
5
1C
100
AcDbEntity
100
AcDbBlockBegin
2
*PAPER_SPACE
0
ENDBLK
5
1D
100
AcDbEntity
100
AcDbBlockEnd
0
ENDSEC
0
SECTION
2
ENTITIES
0
CIRCLE
5
100
100
AcDbEntity
8
0
100
AcDbCircle
10
252.3651767539148
20
264.74869855055726
30
0
40
2.4130000000000025
210
0
220
0
230
1
0
LWPOLYLINE
5
101
100
AcDbEntity
8
0
100
AcDbPolyline
90
8
70
1
43
0.0
10
452.56517675391478
20
67.136698550557014
10
52.165176753915219
20
67.136698550557128
42
-0.41421356237309503
10
49.165176753915141
20
70.136698550557213
10
49.165176753914857
20
267.33669855055729
42
-0.41421356237309503
10
52.165176753915006
20
270.3366985505574
10
452.56517675391478
20
270.33669855055712
42
-0.41421356237309503
10
455.56517675391461
20
267.33669855055729
10
455.56517675391478
20
70.136698550556986
42
-0.41421356237309503
0
CIRCLE
5
102
100
AcDbEntity
8
0
100
AcDbCircle
10
449.9771767539147
20
244.93669855055742
30
0
40
2.4130000000000003
210
0
220
0
230
1
0
CIRCLE
5
103
100
AcDbEntity
8
0
100
AcDbCircle
10
449.9771767539147
20
92.536698550557162
30
0
40
2.4130000000000305
210
0
220
0
230
1
0
CIRCLE
5
104
100
AcDbEntity
8
0
100
AcDbCircle
10
54.753176753914943
20
92.536698550557219
30
0
40
2.4130000000000003
210
0
220
0
230
1
0
CIRCLE
5
105
100
AcDbEntity
8
0
100
AcDbCircle
10
252.3651767539148
20
72.724698550557179
30
0
40
2.4129999999999949
210
0
220
0
230
1
0
CIRCLE
5
106
100
AcDbEntity
8
0
100
AcDbCircle
10
54.753176753914907
20
244.9366985505572
30
0
40
2.4129999999999976
210
0
220
0
230
1
0
LWPOLYLINE
5
107
100
AcDbEntity
8
0
100
AcDbPolyline
90
24
70
1
43
0.0
10
311.90845249492077
20
138.48898509689275
42
-1.9792103867990363
10
311.90845249492071
20
156.71425600422188
42
0.32197255939282032
10
312.95860313178946
20
156.70151381884003
10
313.01027549120488
20
156.73769397651532
42
0.32197255939275682
10
313.35750577712872
20
157.72885988187201
42
-1.3364267939950973
10
335.07775373070046
20
157.72885988187195
42
0.32197255939273911
10
335.42498401662431
20
156.73769397651529
10
335.47665637603961
20
156.70151381884003
42
0.32197255939277597
10
336.52680701290842
20
156.71425600422191
42
-1.9792103867990494
10
336.52680701290831
20
138.48898509689275
42
0.32197255939270597
10
335.47665637603956
20
138.5017272822746
10
335.42498401662419
20
138.46554712459937
42
0.32197255939275693
10
335.07775373070041
20
137.47438121924267
42
-0.71842120810709786
10
317.50180701290844
20
125.16798509689279
42
0.32197255939271785
10
316.45165637603964
20
125.18072728227463
10
316.39998401662427
20
125.14454712459937
42
0.32197255939273806
10
316.05275373070043
20
124.15338121924268
42
-6.1028076601759782
10
311.90845249492082
20
130.07225600422183
42
0.32197255939277575
10
312.95860313178957
20
130.05951381884
10
313.01027549120499
20
130.09569397651529
42
0.3219725593927375
10
313.35750577712884
20
131.08685988187193
42
-0.14399201158785369
10
313.35750577712884
20
137.47438121924267
42
0.32197255939274233
10
313.01027549120488
20
138.46554712459937
10
312.95860313178957
20
138.5017272822746
42
0.32197255939274017
0
LWPOLYLINE
5
108
100
AcDbEntity
8
0
100
AcDbPolyline
90
16
70
1
43
0.0
10
316.45165637603958
20
143.38051381883997
10
316.39998401662422
20
143.41669397651526
42
-0.32197255939274799
10
316.05275373070037
20
144.40785988187193
42
0.14399201158785369
10
316.05275373070037
20
150.79538121924264
42
-0.32197255939268848
10
316.39998401662427
20
151.78654712459934
10
316.45165637603958
20
151.82272728227454
42
-0.32197255939274017
10
317.50180701290839
20
151.80998509689269
42
0.32868118046914696
10
330.93345249492074
20
151.80998509689269
42
-0.32197255939275515
10
331.98360313178961
20
151.82272728227454
10
332.03527549120497
20
151.78654712459928
42
-0.32197255939272862
10
332.38250577712876
20
150.79538121924267
42
0.14399201158785324
10
332.38250577712876
20
144.40785988187196
42
-0.32197255939271507
10
332.03527549120497
20
143.41669397651526
10
331.98360313178955
20
143.38051381884
42
-0.32197255939270597
10
330.93345249492074
20
143.39325600422183
42
0.32868118046914696
10
317.50180701290839
20
143.39325600422177
42
-0.32197255939276548
0
LWPOLYLINE
5
109
100
AcDbEntity
8
0
100
AcDbPolyline
90
8
70
1
43
0.0
10
190.8671340166245
20
129.5880089765152
42
-0.32197255939273289
10
190.51990373070066
20
130.57917488187192
42
6.1028076601759196
10
186.37560249492105
20
124.66030009689268
42
-0.32197255939270564
10
187.42575313178978
20
124.67304228227459
10
187.47742549120517
20
124.63686212459932
42
-0.32197255939273911
10
187.82465577712901
20
123.64569621924264
42
6.1028076601759365
10
191.9689570129087
20
129.56457100422179
42
-0.32197255939277597
10
190.9188063760399
20
129.55182881883994
0
LWPOLYLINE
5
110
100
AcDbEntity
8
0
100
AcDbPolyline
90
4
70
1
43
0.0
10
352.2724812728265
20
224.68349389425589
42
-4.0567404226971062
10
362.7947762350027
20
224.68349389425589
42
0.60448830020564059
10
362.79477623500281
20
223.08971320685828
42
-4.0567404226969588
10
352.27248127282633
20
223.08971320685828
42
0.60448830020568833
0
LWPOLYLINE
5
111
100
AcDbEntity
8
0
100
AcDbPolyline
90
4
70
1
43
0.0
10
406.84531227282673
20
205.54966489425553
42
-0.60448830020584166
10
406.84531227282667
20
203.95588420685817
42
4.0567404226972608
10
417.3676072350022
20
203.95588420685812
42
-0.60448830020592581
10
417.36760723500208
20
205.54966489425561
42
4.0567404226975246
0
LWPOLYLINE
5
112
100
AcDbEntity
8
0
100
AcDbPolyline
90
8
70
1
43
0.0
10
263.98206709761348
20
200.94909603164521
42
-4.056740422697044
10
263.98206709761359
20
190.42680106946889
42
0.60448830020565181
10
262.38828641021604
20
190.42680106946881
42
-0.60448830020557964
10
242.34206709761361
20
190.42680106946861
42
0.6044883002057575
10
240.74828641021622
20
190.42680106946872
42
-4.0567404226970405
10
240.74828641021634
20
200.94909603164538
42
0.60448830020580646
10
242.34206709761378
20
200.94909603164552
42
-0.60448830020558408
10
262.38828641021587
20
200.94909603164524
42
0.60448830020562805
0
LWPOLYLINE
5
113
100
AcDbEntity
8
0
100
AcDbPolyline
90
4
70
1
43
0.0
10
391.14349323500289
20
219.8623202068583
42
-0.6044883002054986
10
391.14349323500301
20
221.45610089425611
42
4.0567404226967421
10
380.62119827282595
20
221.45610089425605
42
-0.6044883002054986
10
380.62119827282601
20
219.86232020685833
42
4.0567404226968389
0
LWPOLYLINE
5
114
100
AcDbEntity
8
0
100
AcDbPolyline
90
4
70
1
43
0.0
10
336.51457723500141
20
211.1022542068591
42
-4.0567404226982227
10
325.99228227282771
20
211.10225420685913
42
0.60448830020612554
10
325.99228227282742
20
212.69603489425623
42
-4.0567404226976329
10
336.51457723500175
20
212.69603489425629
42
0.60448830020613809
0
CIRCLE
5
115
100
AcDbEntity
8
0
100
AcDbCircle
10
146.68338975391487
20
212.6961705505571
30
0
40
11.319999999999999
210
0
220
0
230
1
0
CIRCLE
5
116
100
AcDbEntity
8
0
100
AcDbCircle
10
93.193657753915033
20
193.22584755055715
30
0
40
11.320000000000007
210
0
220
0
230
1
0
CIRCLE
5
117
100
AcDbEntity
8
0
100
AcDbCircle
10
172.86517675391485
20
200.92669855055718
30
0
40
11.319999999999995
210
0
220
0
230
1
0
CIRCLE
5
118
100
AcDbEntity
8
0
100
AcDbCircle
10
118.06012175391494
20
209.50533055055706
30
0
40
11.319999999999993
210
0
220
0
230
1
0
ENDSEC
0
SECTION
2
OBJECTS
0
DICTIONARY
5
C
100
AcDbDictionary
3
ACAD_GROUP
350
D
3
ACAD_MLINESTYLE
350
17
0
DICTIONARY
5
D
100
AcDbDictionary
0
DICTIONARY
5
1A
330
C
100
AcDbDictionary
0
DICTIONARY
5
17
100
AcDbDictionary
0
ENDSEC
0
EOF
